<svg width="1220" height="700" viewBox="0 0 1220 700" fill="none" xmlns="http://www.w3.org/2000/svg">
<rect width="1220" height="700" fill="#1F1914"/>
<mask id="mask0_203_18269" style="mask-type:alpha" maskUnits="userSpaceOnUse" x="0" y="0" width="1220" height="700">
<rect width="1220" height="700" fill="#1F1914"/>
</mask>
<g mask="url(#mask0_203_18269)">
<g opacity="0.3">
<rect width="102.002" height="915.634" transform="matrix(0.866025 0.5 -2.20305e-08 1 220.206 -184.485)" stroke="white" stroke-width="0.6"/>
<rect width="367.299" height="1005.93" transform="matrix(0.866025 -0.5 2.20305e-08 1 308.542 -131.74)" stroke="white" stroke-width="0.6"/>
<rect width="633.704" height="347.348" transform="matrix(0.866025 -0.5 2.20305e-08 1 -329.011 132.021)" stroke="white" stroke-width="0.6"/>
<rect width="185.103" height="810.481" transform="matrix(0.866025 -0.5 2.20305e-08 1 360.577 -1.53906)" stroke="white" stroke-width="0.6"/>
<rect width="28.1047" height="821.685" transform="matrix(0.866025 -0.5 2.20305e-08 1 520.882 -94.0898)" stroke="white" stroke-width="0.6"/>
<rect width="107.645" height="633.704" transform="matrix(0.866025 0.5 -0.866025 0.5 126.57 -238.652)" stroke="white" stroke-width="0.6"/>
<path d="M43.3215 -83.0859V263.742" stroke="white" stroke-width="0.6"/>
</g>
<path d="M591.824 238.033L786.199 125.908L845.699 572.908L726.949 754L591.824 760V238.033Z" fill="#1F1914"/>
<g opacity="0.3">
<rect width="155.495" height="483.5" transform="matrix(0.866025 0.5 -2.20305e-08 1 591.797 237.851)" stroke="white" stroke-width="0.6" stroke-linecap="round" stroke-linejoin="round"/>
<rect width="155.736" height="618.842" transform="matrix(0.866025 0.5 -0.866025 0.5 1127.73 -71.542)" stroke="white" stroke-width="0.6" stroke-linecap="round" stroke-linejoin="round"/>
<path d="M726.249 523.549L1234.61 230.049L1240.02 233.173L726.484 529.66" stroke="white" stroke-width="0.6" stroke-linecap="round" stroke-linejoin="round"/>
<path d="M726.249 398.869L1234.61 105.369L1240.02 108.492L726.484 404.98" stroke="white" stroke-width="0.6" stroke-linecap="round" stroke-linejoin="round"/>
<rect width="618.578" height="13.9359" transform="matrix(0.866025 -0.5 2.20305e-08 1 726.46 315.753)" stroke="white" stroke-width="0.6" stroke-linecap="round" stroke-linejoin="round"/>
<rect width="601.409" height="13.9359" transform="matrix(0.866025 -0.5 2.20305e-08 1 726.46 391.161)" stroke="white" stroke-width="0.6" stroke-linecap="round" stroke-linejoin="round"/>
<rect width="601.409" height="13.9359" transform="matrix(0.866025 -0.5 2.20305e-08 1 726.46 516.21)" stroke="white" stroke-width="0.6" stroke-linecap="round" stroke-linejoin="round"/>
<rect width="601.409" height="61.4729" transform="matrix(0.866025 -0.5 2.20305e-08 1 726.46 329.688)" stroke="white" stroke-width="0.6" stroke-linecap="round" stroke-linejoin="round"/>
<rect width="601.409" height="111.114" transform="matrix(0.866025 -0.5 2.20305e-08 1 726.46 405.096)" stroke="white" stroke-width="0.6" stroke-linecap="round" stroke-linejoin="round"/>
<rect width="601.409" height="111.114" transform="matrix(0.866025 -0.5 2.20305e-08 1 726.46 530.146)" stroke="white" stroke-width="0.6" stroke-linecap="round" stroke-linejoin="round"/>
<path d="M896.865 231.389L896.865 292.947" stroke="white" stroke-width="0.6" stroke-linecap="round" stroke-linejoin="round"/>
<path d="M896.865 306.578L896.865 418.054" stroke="white" stroke-width="0.6" stroke-linecap="round" stroke-linejoin="round"/>
<path d="M896.865 432.226L896.865 543.385" stroke="white" stroke-width="0.6" stroke-linecap="round" stroke-linejoin="round"/>
<path d="M1076.89 127.198L1076.89 188.756" stroke="white" stroke-width="0.6" stroke-linecap="round" stroke-linejoin="round"/>
<path d="M1076.89 202.388L1076.89 313.76" stroke="white" stroke-width="0.6" stroke-linecap="round" stroke-linejoin="round"/>
<path d="M1076.89 327.932L1076.89 439.09" stroke="white" stroke-width="0.6" stroke-linecap="round" stroke-linejoin="round"/>
</g>
<path d="M844.262 531.658L1220.7 314.908L1326.45 354.408L966.012 602.158L844.262 642.658V531.658Z" fill="#1F1914"/>
<g opacity="0.3">
<rect width="182.985" height="276.099" transform="matrix(0.866025 0.5 -2.20305e-08 1 844.234 537.588)" stroke="white" stroke-width="0.6" stroke-linejoin="round"/>
<rect width="169.155" height="267.225" transform="matrix(0.866025 0.5 -2.20305e-08 1 848.841 549.19)" stroke="white" stroke-width="0.6" stroke-linejoin="round"/>
<path d="M848.841 553.408L848.841 792.098L934.234 742.797L934.234 598.408" stroke="white" stroke-width="0.6" stroke-linejoin="round"/>
<rect width="182.99" height="276.717" transform="matrix(0.866025 0.5 -2.20305e-08 1 844.23 532.053)" stroke="white" stroke-width="0.6" stroke-linejoin="round"/>
<rect width="169.51" height="282.788" transform="matrix(0.866025 -0.5 2.20305e-08 1 1002.7 623.601)" stroke="white" stroke-width="0.6" stroke-linejoin="round"/>
<rect width="475.194" height="5.54752" transform="matrix(0.866025 -0.5 2.20305e-08 1 1002.7 623.601)" stroke="white" stroke-width="0.6" stroke-linejoin="round"/>
<rect width="246.108" height="228.199" transform="matrix(0.866025 -0.5 2.20305e-08 1 1149.5 544.399)" stroke="white" stroke-width="0.6" stroke-linejoin="round"/>
<rect width="434.413" height="0.00117756" transform="matrix(0.866025 -0.5 -2.20305e-08 -1 844.234 531.882)" stroke="white" stroke-width="0.6" stroke-linejoin="round"/>
</g>
</g>
</svg>
