<svg width="343" height="70" viewBox="0 0 343 70" fill="none" xmlns="http://www.w3.org/2000/svg">
<path d="M60 52.2V13.32H64.752V22.68L63.816 21.456C64.248 20.304 64.812 19.248 65.508 18.288C66.204 17.304 66.96 16.5 67.776 15.876C68.784 14.988 69.96 14.316 71.304 13.86C72.648 13.38 74.004 13.104 75.372 13.032C76.74 12.936 77.988 13.032 79.116 13.32V18.288C77.7 17.928 76.152 17.844 74.472 18.036C72.792 18.228 71.244 18.9 69.828 20.052C68.532 21.06 67.56 22.272 66.912 23.688C66.264 25.08 65.832 26.568 65.616 28.152C65.4 29.712 65.292 31.26 65.292 32.796V52.2H60Z" fill="#212529"/>
<path d="M101.694 53.28C97.9022 53.28 94.6142 52.44 91.8302 50.76C89.0702 49.08 86.9222 46.716 85.3862 43.668C83.8502 40.62 83.0822 37.044 83.0822 32.94C83.0822 28.692 83.8382 25.02 85.3502 21.924C86.8622 18.828 88.9862 16.44 91.7222 14.76C94.4822 13.08 97.7342 12.24 101.478 12.24C105.318 12.24 108.594 13.128 111.306 14.904C114.018 16.656 116.07 19.176 117.462 22.464C118.854 25.752 119.49 29.676 119.37 34.236H113.97V32.364C113.874 27.324 112.782 23.52 110.694 20.952C108.63 18.384 105.606 17.1 101.622 17.1C97.4462 17.1 94.2422 18.456 92.0102 21.168C89.8022 23.88 88.6982 27.744 88.6982 32.76C88.6982 37.656 89.8022 41.46 92.0102 44.172C94.2422 46.86 97.3982 48.204 101.478 48.204C104.262 48.204 106.686 47.568 108.75 46.296C110.838 45 112.482 43.14 113.682 40.716L118.614 42.624C117.078 46.008 114.81 48.636 111.81 50.508C108.834 52.356 105.462 53.28 101.694 53.28ZM86.8262 34.236V29.808H116.526V34.236H86.8262Z" fill="#212529"/>
<path d="M132.2 69.48L139.724 49.068L139.832 55.116L122.804 13.32H128.42L142.388 48.276H140.084L152.972 13.32H158.372L137.492 69.48H132.2Z" fill="#212529"/>
<path d="M164.589 52.2L164.625 0.359999H169.953V32.04L187.305 13.32H194.361L176.145 32.76L196.737 52.2H189.033L169.953 33.48V52.2H164.589Z" fill="#212529"/>
<path d="M194.584 69.48V64.368H196.78C198.532 64.368 199.924 63.912 200.956 63C202.012 62.112 202.54 60.612 202.54 58.5V13.32H207.796V59.832C207.796 63.072 207.016 65.484 205.456 67.068C203.92 68.676 201.556 69.48 198.364 69.48H194.584ZM202.54 5.94V0H207.796V5.94H202.54Z" fill="#212529"/>
<path d="M229.538 53.28C226.61 53.28 224.15 52.752 222.158 51.696C220.19 50.64 218.714 49.236 217.73 47.484C216.746 45.732 216.254 43.824 216.254 41.76C216.254 39.648 216.674 37.848 217.514 36.36C218.378 34.848 219.542 33.612 221.006 32.652C222.494 31.692 224.21 30.96 226.154 30.456C228.122 29.976 230.294 29.556 232.67 29.196C235.07 28.812 237.41 28.488 239.69 28.224C241.994 27.936 244.01 27.66 245.738 27.396L243.866 28.548C243.938 24.708 243.194 21.864 241.634 20.016C240.074 18.168 237.362 17.244 233.498 17.244C230.834 17.244 228.578 17.844 226.73 19.044C224.906 20.244 223.622 22.14 222.878 24.732L217.73 23.22C218.618 19.74 220.406 17.04 223.094 15.12C225.782 13.2 229.274 12.24 233.57 12.24C237.122 12.24 240.134 12.912 242.606 14.256C245.102 15.576 246.866 17.496 247.898 20.016C248.378 21.144 248.69 22.404 248.834 23.796C248.978 25.188 249.05 26.604 249.05 28.044V52.2H244.334V42.444L245.702 43.02C244.382 46.356 242.33 48.9 239.546 50.652C236.762 52.404 233.426 53.28 229.538 53.28ZM230.15 48.708C232.622 48.708 234.782 48.264 236.63 47.376C238.478 46.488 239.966 45.276 241.094 43.74C242.222 42.18 242.954 40.428 243.29 38.484C243.578 37.236 243.734 35.868 243.758 34.38C243.782 32.868 243.794 31.74 243.794 30.996L245.81 32.04C244.01 32.28 242.054 32.52 239.942 32.76C237.854 33 235.79 33.276 233.75 33.588C231.734 33.9 229.91 34.272 228.278 34.704C227.174 35.016 226.106 35.46 225.074 36.036C224.042 36.588 223.19 37.332 222.518 38.268C221.87 39.204 221.546 40.368 221.546 41.76C221.546 42.888 221.822 43.98 222.374 45.036C222.95 46.092 223.862 46.968 225.11 47.664C226.382 48.36 228.062 48.708 230.15 48.708Z" fill="#212529"/>
<path d="M267.528 52.2L253.416 13.32H258.78L270.264 45.288L281.676 13.32H287.112L273 52.2H267.528Z" fill="#212529"/>
<path d="M294.298 5.94V0H299.59V5.94H294.298ZM294.298 52.2V13.32H299.59V52.2H294.298Z" fill="#212529"/>
<path d="M310.347 52.2L310.383 0.359999H315.711V32.04L333.063 13.32H340.119L321.903 32.76L342.495 52.2H334.791L315.711 33.48V52.2H310.347Z" fill="#212529"/>
<path d="M44 38.2522V53H29.3333L14.6667 38.2522V53L0 38.2522V0H14.6667H29.2522H29.3333L29.4136 0.161431L44 14.7478V29.4957H29.3333L14.6667 14.7478V38.2522H44Z" fill="#212529"/>
</svg>
